<?xml version="1.0" encoding="UTF-8"?>
<svg width="32" height="32" viewBox="0 0 32 32" fill="none" xmlns="http://www.w3.org/2000/svg">
  <path d="M6.4 21.6C6.6 21.4 6.9 21.3 7.2 21.3H24.8C25.3 21.3 25.6 21.8 25.4 22.2L23.6 25.2C23.4 25.4 23.1 25.5 22.8 25.5H5.2C4.7 25.5 4.4 25 4.6 24.6L6.4 21.6Z" fill="url(#paint0_linear)"/>
  <path d="M6.4 10.4C6.6 10.2 6.9 10.1 7.2 10.1H24.8C25.3 10.1 25.6 10.6 25.4 11L23.6 14C23.4 14.2 23.1 14.3 22.8 14.3H5.2C4.7 14.3 4.4 13.8 4.6 13.4L6.4 10.4Z" fill="url(#paint1_linear)"/>
  <path d="M23.6 16C23.4 15.8 23.1 15.7 22.8 15.7H5.2C4.7 15.7 4.4 16.2 4.6 16.6L6.4 19.6C6.6 19.8 6.9 19.9 7.2 19.9H24.8C25.3 19.9 25.6 19.4 25.4 19L23.6 16Z" fill="url(#paint2_linear)"/>
  <defs>
    <linearGradient id="paint0_linear" x1="4.4" y1="21.3" x2="25.6" y2="25.5" gradientUnits="userSpaceOnUse">
      <stop stop-color="#9945FF"/>
      <stop offset="1" stop-color="#14F195"/>
    </linearGradient>
    <linearGradient id="paint1_linear" x1="4.4" y1="10.1" x2="25.6" y2="14.3" gradientUnits="userSpaceOnUse">
      <stop stop-color="#9945FF"/>
      <stop offset="1" stop-color="#14F195"/>
    </linearGradient>
    <linearGradient id="paint2_linear" x1="4.4" y1="15.7" x2="25.6" y2="19.9" gradientUnits="userSpaceOnUse">
      <stop stop-color="#9945FF"/>
      <stop offset="1" stop-color="#14F195"/>
    </linearGradient>
  </defs>
</svg> 